<svg xmlns="http://www.w3.org/2000/svg" viewBox="0 0 24 24" fill="#0070f3" width="200" height="200">
  <path d="M12 3C7.58 3 4 4.79 4 7v10c0 2.21 3.58 4 8 4s8-1.79 8-4V7c0-2.21-3.58-4-8-4zm0 2c3.87 0 6 1.5 6 2s-2.13 2-6 2-6-1.5-6-2 2.13-2 6-2zm0 14c-3.87 0-6-1.5-6-2v-1.68c1.37.71 3.45 1.18 6 1.18s4.63-.47 6-1.18V17c0 .5-2.13 2-6 2zm0-4c-3.87 0-6-1.5-6-2v-1.68c1.37.71 3.45 1.18 6 1.18s4.63-.47 6-1.18V13c0 .5-2.13 2-6 2zm0-4c-3.87 0-6-1.5-6-2V9c0 .5 2.13 2 6 2s6-1.5 6-2v.32c0 .5-2.13 2-6 2z"/>
</svg>
